<svg xmlns="http://www.w3.org/2000/svg" fill="none" viewBox="0 0 96 96" id="GoldCoinsEur"><path fill="#34a853" fill-opacity=".1" d="M85.4692 39.0072C86.7085 39.8444 88 41.1566 88 43V49C88 50.8434 86.7085 52.1556 85.4692 52.9928C84.7659 53.4679 83.9315 53.8949 83 54.2769V56C83 56.4128 82.9352 56.799 82.8208 57.1592C83.4986 57.9089 84 58.8513 84 60V66C84 67.8434 82.7085 69.1556 81.4692 69.9928C80.1602 70.8771 78.3973 71.5946 76.3987 72.1657C72.3742 73.3156 66.9305 74 61 74C55.0695 74 49.6258 73.3156 45.6013 72.1657C43.6027 71.5946 41.8398 70.8771 40.5308 69.9928C39.2915 69.1556 38 67.8434 38 66V60C38 59.5872 38.0648 59.201 38.1792 58.8408C37.5014 58.0911 37 57.1487 37 56V50C37 48.1566 38.2915 46.8444 39.5308 46.0072C40.2341 45.5321 41.0685 45.1051 42 44.7231V43C42 41.1566 43.2915 39.8444 44.5308 39.0072C45.8398 38.1229 47.6027 37.4054 49.6013 36.8343C53.6258 35.6844 59.0695 35 65 35C70.9305 35 76.3742 35.6844 80.3987 36.8343C82.3973 37.4054 84.1602 38.1229 85.4692 39.0072Z" class="color021024 svgShape"></path><path fill="#d19b00" d="M80 58C80 54.6863 70.598 52 59 52C47.402 52 38 54.6863 38 58V64C38 67.3137 47.402 70 59 70C70.598 70 80 67.3137 80 64V58Z" class="colord18a00 svgShape"></path><path fill="#ea4335" fill-rule="evenodd" d="M79.4692 54.0072C80.7085 54.8444 82 56.1566 82 58V64C82 65.8434 80.7085 67.1556 79.4692 67.9928C78.1602 68.8771 76.3973 69.5946 74.3987 70.1657C70.3742 71.3156 64.9305 72 59 72C53.0695 72 47.6258 71.3156 43.6013 70.1657C41.6027 69.5946 39.8398 68.8771 38.5308 67.9928C37.2915 67.1556 36 65.8434 36 64V58C36 56.1566 37.2915 54.8444 38.5308 54.0072C39.8398 53.1229 41.6027 52.4054 43.6013 51.8343C47.6258 50.6844 53.0695 50 59 50C64.9305 50 70.3742 50.6844 74.3987 51.8343C76.3973 52.4054 78.1602 53.1229 79.4692 54.0072ZM59 52C70.598 52 80 54.6863 80 58V64C80 67.3137 70.598 70 59 70C47.402 70 38 67.3137 38 64V58C38 54.6863 47.402 52 59 52Z" clip-rule="evenodd" class="colorb96f00 svgShape"></path><path fill="#ffc723" d="M80 58C80 61.3137 70.598 64 59 64C47.402 64 38 61.3137 38 58C38 54.6863 47.402 52 59 52C70.598 52 80 54.6863 80 58Z" class="colorffcf23 svgShape"></path><path fill="#ea4335" fill-rule="evenodd" d="M74.3987 64.1657C70.3741 65.3156 64.9305 66 59 66C53.0695 66 47.6258 65.3156 43.6013 64.1657C41.6027 63.5946 39.8398 62.8771 38.5308 61.9928C37.2915 61.1556 36 59.8434 36 58C36 56.1566 37.2915 54.8444 38.5308 54.0072C39.8398 53.1229 41.6027 52.4054 43.6013 51.8343C47.6258 50.6844 53.0695 50 59 50C64.9305 50 70.3741 50.6844 74.3987 51.8343C76.3973 52.4054 78.1602 53.1229 79.4692 54.0072C80.7085 54.8444 82 56.1566 82 58C82 59.8434 80.7085 61.1556 79.4692 61.9928C78.1602 62.8771 76.3973 63.5946 74.3987 64.1657ZM59 64C70.598 64 80 61.3137 80 58C80 54.6863 70.598 52 59 52C47.402 52 38 54.6863 38 58C38 61.3137 47.402 64 59 64Z" clip-rule="evenodd" class="colorb96f00 svgShape"></path><path fill="#ea4335" fill-rule="evenodd" d="M43 62C43.5523 62 44 62.4477 44 63V68.5C44 69.0523 43.5523 69.5 43 69.5 42.4477 69.5 42 69.0523 42 68.5V63C42 62.4477 42.4477 62 43 62zM75 62C75.5523 62 76 62.4477 76 63V68.5C76 69.0523 75.5523 69.5 75 69.5 74.4477 69.5 74 69.0523 74 68.5V63C74 62.4477 74.4477 62 75 62zM51 64C51.5523 64 52 64.4477 52 65V69.5C52 70.0523 51.5523 70.5 51 70.5 50.4477 70.5 50 70.0523 50 69.5V65C50 64.4477 50.4477 64 51 64zM68 64C68.5523 64 69 64.4477 69 65V69.5C69 70.0523 68.5523 70.5 68 70.5 67.4477 70.5 67 70.0523 67 69.5V65C67 64.4477 67.4477 64 68 64zM60 64C60.5523 64 61 64.4477 61 65V69.5C61 70.0523 60.5523 70.5 60 70.5 59.4477 70.5 59 70.0523 59 69.5V65C59 64.4477 59.4477 64 60 64z" clip-rule="evenodd" class="colorb96f00 svgShape"></path><path fill="#d19b00" d="M79 48C79 44.6863 69.598 42 58 42C46.402 42 37 44.6863 37 48V54C37 57.3137 46.402 60 58 60C69.598 60 79 57.3137 79 54V48Z" class="colord18a00 svgShape"></path><path fill="#ea4335" fill-rule="evenodd" d="M78.4692 44.0072C79.7085 44.8444 81 46.1566 81 48V54C81 55.8434 79.7085 57.1556 78.4692 57.9928C77.1602 58.8771 75.3973 59.5946 73.3987 60.1657C69.3742 61.3156 63.9305 62 58 62C52.0695 62 46.6258 61.3156 42.6013 60.1657C40.6027 59.5946 38.8398 58.8771 37.5308 57.9928C36.2915 57.1556 35 55.8434 35 54V48C35 46.1566 36.2915 44.8444 37.5308 44.0072C38.8398 43.1229 40.6027 42.4054 42.6013 41.8343C46.6258 40.6844 52.0695 40 58 40C63.9305 40 69.3742 40.6844 73.3987 41.8343C75.3973 42.4054 77.1602 43.1229 78.4692 44.0072ZM58 42C69.598 42 79 44.6863 79 48V54C79 57.3137 69.598 60 58 60C46.402 60 37 57.3137 37 54V48C37 44.6863 46.402 42 58 42Z" clip-rule="evenodd" class="colorb96f00 svgShape"></path><path fill="#ffc723" d="M79 48C79 51.3137 69.598 54 58 54C46.402 54 37 51.3137 37 48C37 44.6863 46.402 42 58 42C69.598 42 79 44.6863 79 48Z" class="colorffcf23 svgShape"></path><path fill="#ea4335" fill-rule="evenodd" d="M73.3987 54.1657C69.3741 55.3156 63.9305 56 58 56C52.0695 56 46.6258 55.3156 42.6013 54.1657C40.6027 53.5946 38.8398 52.8771 37.5308 51.9928C36.2915 51.1556 35 49.8434 35 48C35 46.1566 36.2915 44.8444 37.5308 44.0072C38.8398 43.1229 40.6027 42.4054 42.6013 41.8343C46.6258 40.6844 52.0695 40 58 40C63.9305 40 69.3741 40.6844 73.3987 41.8343C75.3973 42.4054 77.1602 43.1229 78.4692 44.0072C79.7085 44.8444 81 46.1566 81 48C81 49.8434 79.7085 51.1556 78.4692 51.9928C77.1602 52.8771 75.3973 53.5946 73.3987 54.1657ZM58 54C69.598 54 79 51.3137 79 48C79 44.6863 69.598 42 58 42C46.402 42 37 44.6863 37 48C37 51.3137 46.402 54 58 54Z" clip-rule="evenodd" class="colorb96f00 svgShape"></path><path fill="#ea4335" fill-rule="evenodd" d="M42 52C42.5523 52 43 52.4477 43 53V58.5C43 59.0523 42.5523 59.5 42 59.5 41.4477 59.5 41 59.0523 41 58.5V53C41 52.4477 41.4477 52 42 52zM74 52C74.5523 52 75 52.4477 75 53V58.5C75 59.0523 74.5523 59.5 74 59.5 73.4477 59.5 73 59.0523 73 58.5V53C73 52.4477 73.4477 52 74 52zM50 54C50.5523 54 51 54.4477 51 55V59.5C51 60.0523 50.5523 60.5 50 60.5 49.4477 60.5 49 60.0523 49 59.5V55C49 54.4477 49.4477 54 50 54zM67 54C67.5523 54 68 54.4477 68 55V59.5C68 60.0523 67.5523 60.5 67 60.5 66.4477 60.5 66 60.0523 66 59.5V55C66 54.4477 66.4477 54 67 54zM59 54C59.5523 54 60 54.4477 60 55V59.5C60 60.0523 59.5523 60.5 59 60.5 58.4477 60.5 58 60.0523 58 59.5V55C58 54.4477 58.4477 54 59 54z" clip-rule="evenodd" class="colorb96f00 svgShape"></path><path fill="#d19b00" d="M84 41C84 37.6863 74.598 35 63 35C51.402 35 42 37.6863 42 41V47C42 50.3137 51.402 53 63 53C74.598 53 84 50.3137 84 47V41Z" class="colord18a00 svgShape"></path><path fill="#ea4335" fill-rule="evenodd" d="M83.4692 37.0072C84.7085 37.8444 86 39.1566 86 41V47C86 48.8434 84.7085 50.1556 83.4692 50.9928C82.1602 51.8771 80.3973 52.5946 78.3987 53.1657C74.3742 54.3156 68.9305 55 63 55C57.0695 55 51.6258 54.3156 47.6013 53.1657C45.6027 52.5946 43.8398 51.8771 42.5308 50.9928C41.2915 50.1556 40 48.8434 40 47V41C40 39.1566 41.2915 37.8444 42.5308 37.0072C43.8398 36.1229 45.6027 35.4054 47.6013 34.8343C51.6258 33.6844 57.0695 33 63 33C68.9305 33 74.3742 33.6844 78.3987 34.8343C80.3973 35.4054 82.1602 36.1229 83.4692 37.0072ZM63 35C74.598 35 84 37.6863 84 41V47C84 50.3137 74.598 53 63 53C51.402 53 42 50.3137 42 47V41C42 37.6863 51.402 35 63 35Z" clip-rule="evenodd" class="colorb96f00 svgShape"></path><path fill="#ffc723" d="M84 41C84 44.3137 74.598 47 63 47C51.402 47 42 44.3137 42 41C42 37.6863 51.402 35 63 35C74.598 35 84 37.6863 84 41Z" class="colorffcf23 svgShape"></path><path fill="#ea4335" fill-rule="evenodd" d="M78.3987 47.1657C74.3741 48.3156 68.9305 49 63 49C57.0695 49 51.6258 48.3156 47.6013 47.1657C45.6027 46.5946 43.8398 45.8771 42.5308 44.9928C41.2915 44.1556 40 42.8434 40 41C40 39.1566 41.2915 37.8444 42.5308 37.0072C43.8398 36.1229 45.6027 35.4054 47.6013 34.8343C51.6258 33.6844 57.0695 33 63 33C68.9305 33 74.3741 33.6844 78.3987 34.8343C80.3973 35.4054 82.1602 36.1229 83.4692 37.0072C84.7085 37.8444 86 39.1566 86 41C86 42.8434 84.7085 44.1556 83.4692 44.9928C82.1602 45.8771 80.3973 46.5946 78.3987 47.1657ZM63 47C74.598 47 84 44.3137 84 41C84 37.6863 74.598 35 63 35C51.402 35 42 37.6863 42 41C42 44.3137 51.402 47 63 47Z" clip-rule="evenodd" class="colorb96f00 svgShape"></path><path fill="#ea4335" fill-rule="evenodd" d="M47 45C47.5523 45 48 45.4477 48 46V51.5C48 52.0523 47.5523 52.5 47 52.5 46.4477 52.5 46 52.0523 46 51.5V46C46 45.4477 46.4477 45 47 45zM79 45C79.5523 45 80 45.4477 80 46V51.5C80 52.0523 79.5523 52.5 79 52.5 78.4477 52.5 78 52.0523 78 51.5V46C78 45.4477 78.4477 45 79 45zM55 47C55.5523 47 56 47.4477 56 48V52.5C56 53.0523 55.5523 53.5 55 53.5 54.4477 53.5 54 53.0523 54 52.5V48C54 47.4477 54.4477 47 55 47zM72 47C72.5523 47 73 47.4477 73 48V52.5C73 53.0523 72.5523 53.5 72 53.5 71.4477 53.5 71 53.0523 71 52.5V48C71 47.4477 71.4477 47 72 47zM64 47C64.5523 47 65 47.4477 65 48V52.5C65 53.0523 64.5523 53.5 64 53.5 63.4477 53.5 63 53.0523 63 52.5V48C63 47.4477 63.4477 47 64 47z" clip-rule="evenodd" class="colorb96f00 svgShape"></path><path fill="#34a853" fill-opacity=".1" d="M60 33C60 31.1566 58.7085 29.8444 57.4692 29.0072C56.1602 28.1229 54.3973 27.4054 52.3987 26.8343C48.3742 25.6844 42.9305 25 37 25C31.0695 25 25.6258 25.6844 21.6013 26.8343C19.6027 27.4054 17.8398 28.1229 16.5308 29.0072C15.2915 29.8444 14 31.1566 14 33V39C14 40.8434 15.2915 42.1556 16.5308 42.9928C17.4028 43.5819 18.4763 44.097 19.6867 44.5441C19.3145 44.6372 18.9525 44.734 18.6013 44.8343C16.6027 45.4054 14.8398 46.1229 13.5308 47.0072C12.2915 47.8444 11 49.1566 11 51V57C11 58.8434 12.2915 60.1556 13.5308 60.9928C14.7069 61.7873 16.2493 62.4472 18 62.9872V63.1695C17.4643 63.4303 16.9718 63.7093 16.5308 64.0072C15.2915 64.8444 14 66.1566 14 68V74C14 75.8434 15.2915 77.1556 16.5308 77.9928C17.8398 78.8771 19.6027 79.5946 21.6013 80.1657C25.6258 81.3156 31.0695 82 37 82C42.9305 82 48.3742 81.3156 52.3987 80.1657C54.3973 79.5946 56.1602 78.8771 57.4692 77.9928C58.7085 77.1556 60 75.8434 60 74V69.8305C60.5357 69.5697 61.0282 69.2907 61.4692 68.9928C62.7085 68.1556 64 66.8434 64 65V59C64 57.1566 62.7085 55.8444 61.4692 55.0072C60.8572 54.5938 60.146 54.2168 59.3578 53.8742C60.9609 53.3559 62.3739 52.7327 63.4692 51.9928C64.7085 51.1556 66 49.8434 66 48V42C66 40.1566 64.7085 38.8444 63.4692 38.0072C62.5226 37.3678 61.3387 36.8155 60 36.3428V33Z" class="color021024 svgShape"></path><path fill="#d19b00" d="M56 66C56 62.6863 46.598 60 35 60C23.402 60 14 62.6863 14 66V72C14 75.3137 23.402 78 35 78C46.598 78 56 75.3137 56 72V66Z" class="colord18a00 svgShape"></path><path fill="#ea4335" fill-rule="evenodd" d="M55.4692 62.0072C56.7085 62.8444 58 64.1566 58 66V72C58 73.8434 56.7085 75.1556 55.4692 75.9928C54.1602 76.8771 52.3973 77.5946 50.3987 78.1657C46.3742 79.3156 40.9305 80 35 80C29.0695 80 23.6258 79.3156 19.6013 78.1657C17.6027 77.5946 15.8398 76.8771 14.5308 75.9928C13.2915 75.1556 12 73.8434 12 72V66C12 64.1566 13.2915 62.8444 14.5308 62.0072C15.8398 61.1229 17.6027 60.4054 19.6013 59.8343C23.6258 58.6844 29.0695 58 35 58C40.9305 58 46.3742 58.6844 50.3987 59.8343C52.3973 60.4054 54.1602 61.1229 55.4692 62.0072ZM35 60C46.598 60 56 62.6863 56 66V72C56 75.3137 46.598 78 35 78C23.402 78 14 75.3137 14 72V66C14 62.6863 23.402 60 35 60Z" clip-rule="evenodd" class="colorb96f00 svgShape"></path><path fill="#ffc723" d="M56 66C56 69.3137 46.598 72 35 72C23.402 72 14 69.3137 14 66C14 62.6863 23.402 60 35 60C46.598 60 56 62.6863 56 66Z" class="colorffcf23 svgShape"></path><path fill="#ea4335" fill-rule="evenodd" d="M50.3987 72.1657C46.3741 73.3156 40.9305 74 35 74C29.0695 74 23.6258 73.3156 19.6013 72.1657C17.6027 71.5946 15.8398 70.8771 14.5308 69.9928C13.2915 69.1556 12 67.8434 12 66C12 64.1566 13.2915 62.8444 14.5308 62.0072C15.8398 61.1229 17.6027 60.4054 19.6013 59.8343C23.6258 58.6844 29.0695 58 35 58C40.9305 58 46.3741 58.6844 50.3987 59.8343C52.3973 60.4054 54.1602 61.1229 55.4692 62.0072C56.7085 62.8444 58 64.1566 58 66C58 67.8434 56.7085 69.1556 55.4692 69.9928C54.1602 70.8771 52.3973 71.5946 50.3987 72.1657ZM35 72C46.598 72 56 69.3137 56 66C56 62.6863 46.598 60 35 60C23.402 60 14 62.6863 14 66C14 69.3137 23.402 72 35 72Z" clip-rule="evenodd" class="colorb96f00 svgShape"></path><path fill="#ea4335" fill-rule="evenodd" d="M19 70C19.5523 70 20 70.4477 20 71V76.5C20 77.0523 19.5523 77.5 19 77.5 18.4477 77.5 18 77.0523 18 76.5V71C18 70.4477 18.4477 70 19 70zM51 70C51.5523 70 52 70.4477 52 71V76.5C52 77.0523 51.5523 77.5 51 77.5 50.4477 77.5 50 77.0523 50 76.5V71C50 70.4477 50.4477 70 51 70zM27 72C27.5523 72 28 72.4477 28 73V77.5C28 78.0523 27.5523 78.5 27 78.5 26.4477 78.5 26 78.0523 26 77.5V73C26 72.4477 26.4477 72 27 72zM44 72C44.5523 72 45 72.4477 45 73V77.5C45 78.0523 44.5523 78.5 44 78.5 43.4477 78.5 43 78.0523 43 77.5V73C43 72.4477 43.4477 72 44 72zM36 72C36.5523 72 37 72.4477 37 73V77.5C37 78.0523 36.5523 78.5 36 78.5 35.4477 78.5 35 78.0523 35 77.5V73C35 72.4477 35.4477 72 36 72z" clip-rule="evenodd" class="colorb96f00 svgShape"></path><path fill="#d19b00" d="M60 57C60 53.6863 50.598 51 39 51C27.402 51 18 53.6863 18 57V63C18 66.3137 27.402 69 39 69C50.598 69 60 66.3137 60 63V57Z" class="colord18a00 svgShape"></path><path fill="#ea4335" fill-rule="evenodd" d="M59.4692 53.0072C60.7085 53.8444 62 55.1566 62 57V63C62 64.8434 60.7085 66.1556 59.4692 66.9928C58.1602 67.8771 56.3973 68.5946 54.3987 69.1657C50.3742 70.3156 44.9305 71 39 71C33.0695 71 27.6258 70.3156 23.6013 69.1657C21.6027 68.5946 19.8398 67.8771 18.5308 66.9928C17.2915 66.1556 16 64.8434 16 63V57C16 55.1566 17.2915 53.8444 18.5308 53.0072C19.8398 52.1229 21.6027 51.4054 23.6013 50.8343C27.6258 49.6844 33.0695 49 39 49C44.9305 49 50.3742 49.6844 54.3987 50.8343C56.3973 51.4054 58.1602 52.1229 59.4692 53.0072ZM39 51C50.598 51 60 53.6863 60 57V63C60 66.3137 50.598 69 39 69C27.402 69 18 66.3137 18 63V57C18 53.6863 27.402 51 39 51Z" clip-rule="evenodd" class="colorb96f00 svgShape"></path><path fill="#ffc723" d="M60 57C60 60.3137 50.598 63 39 63C27.402 63 18 60.3137 18 57C18 53.6863 27.402 51 39 51C50.598 51 60 53.6863 60 57Z" class="colorffcf23 svgShape"></path><path fill="#ea4335" fill-rule="evenodd" d="M54.3987 63.1657C50.3741 64.3156 44.9305 65 39 65C33.0695 65 27.6258 64.3156 23.6013 63.1657C21.6027 62.5946 19.8398 61.8771 18.5308 60.9928C17.2915 60.1556 16 58.8434 16 57C16 55.1566 17.2915 53.8444 18.5308 53.0072C19.8398 52.1229 21.6027 51.4054 23.6013 50.8343C27.6258 49.6844 33.0695 49 39 49C44.9305 49 50.3741 49.6844 54.3987 50.8343C56.3973 51.4054 58.1602 52.1229 59.4692 53.0072C60.7085 53.8444 62 55.1566 62 57C62 58.8434 60.7085 60.1556 59.4692 60.9928C58.1602 61.8771 56.3973 62.5946 54.3987 63.1657ZM39 63C50.598 63 60 60.3137 60 57C60 53.6863 50.598 51 39 51C27.402 51 18 53.6863 18 57C18 60.3137 27.402 63 39 63Z" clip-rule="evenodd" class="colorb96f00 svgShape"></path><path fill="#ea4335" fill-rule="evenodd" d="M23 61C23.5523 61 24 61.4477 24 62V67.5C24 68.0523 23.5523 68.5 23 68.5 22.4477 68.5 22 68.0523 22 67.5V62C22 61.4477 22.4477 61 23 61zM55 61C55.5523 61 56 61.4477 56 62V67.5C56 68.0523 55.5523 68.5 55 68.5 54.4477 68.5 54 68.0523 54 67.5V62C54 61.4477 54.4477 61 55 61zM31 63C31.5523 63 32 63.4477 32 64V68.5C32 69.0523 31.5523 69.5 31 69.5 30.4477 69.5 30 69.0523 30 68.5V64C30 63.4477 30.4477 63 31 63zM48 63C48.5523 63 49 63.4477 49 64V68.5C49 69.0523 48.5523 69.5 48 69.5 47.4477 69.5 47 69.0523 47 68.5V64C47 63.4477 47.4477 63 48 63zM40 63C40.5523 63 41 63.4477 41 64V68.5C41 69.0523 40.5523 69.5 40 69.5 39.4477 69.5 39 69.0523 39 68.5V64C39 63.4477 39.4477 63 40 63z" clip-rule="evenodd" class="colorb96f00 svgShape"></path><path fill="#d19b00" d="M53 49C53 45.6863 43.598 43 32 43C20.402 43 11 45.6863 11 49V55C11 58.3137 20.402 61 32 61C43.598 61 53 58.3137 53 55V49Z" class="colord18a00 svgShape"></path><path fill="#ea4335" fill-rule="evenodd" d="M52.4692 45.0072C53.7085 45.8444 55 47.1566 55 49V55C55 56.8434 53.7085 58.1556 52.4692 58.9928C51.1602 59.8771 49.3973 60.5946 47.3987 61.1657C43.3742 62.3156 37.9305 63 32 63C26.0695 63 20.6258 62.3156 16.6013 61.1657C14.6027 60.5946 12.8398 59.8771 11.5308 58.9928C10.2915 58.1556 9 56.8434 9 55V49C9 47.1566 10.2915 45.8444 11.5308 45.0072C12.8398 44.1229 14.6027 43.4054 16.6013 42.8343C20.6258 41.6844 26.0695 41 32 41C37.9305 41 43.3742 41.6844 47.3987 42.8343C49.3973 43.4054 51.1602 44.1229 52.4692 45.0072ZM32 43C43.598 43 53 45.6863 53 49V55C53 58.3137 43.598 61 32 61C20.402 61 11 58.3137 11 55V49C11 45.6863 20.402 43 32 43Z" clip-rule="evenodd" class="colorb96f00 svgShape"></path><path fill="#ffc723" d="M53 49C53 52.3137 43.598 55 32 55C20.402 55 11 52.3137 11 49C11 45.6863 20.402 43 32 43C43.598 43 53 45.6863 53 49Z" class="colorffcf23 svgShape"></path><path fill="#ea4335" fill-rule="evenodd" d="M47.3987 55.1657C43.3741 56.3156 37.9305 57 32 57C26.0695 57 20.6258 56.3156 16.6013 55.1657C14.6027 54.5946 12.8398 53.8771 11.5308 52.9928C10.2915 52.1556 9 50.8434 9 49C9 47.1566 10.2915 45.8444 11.5308 45.0072C12.8398 44.1229 14.6027 43.4054 16.6013 42.8343C20.6258 41.6844 26.0695 41 32 41C37.9305 41 43.3741 41.6844 47.3987 42.8343C49.3973 43.4054 51.1602 44.1229 52.4692 45.0072C53.7085 45.8444 55 47.1566 55 49C55 50.8434 53.7085 52.1556 52.4692 52.9928C51.1602 53.8771 49.3973 54.5946 47.3987 55.1657ZM32 55C43.598 55 53 52.3137 53 49C53 45.6863 43.598 43 32 43C20.402 43 11 45.6863 11 49C11 52.3137 20.402 55 32 55Z" clip-rule="evenodd" class="colorb96f00 svgShape"></path><path fill="#ea4335" fill-rule="evenodd" d="M16 53C16.5523 53 17 53.4477 17 54V59.5C17 60.0523 16.5523 60.5 16 60.5 15.4477 60.5 15 60.0523 15 59.5V54C15 53.4477 15.4477 53 16 53zM48 53C48.5523 53 49 53.4477 49 54V59.5C49 60.0523 48.5523 60.5 48 60.5 47.4477 60.5 47 60.0523 47 59.5V54C47 53.4477 47.4477 53 48 53zM24 55C24.5523 55 25 55.4477 25 56V60.5C25 61.0523 24.5523 61.5 24 61.5 23.4477 61.5 23 61.0523 23 60.5V56C23 55.4477 23.4477 55 24 55zM41 55C41.5523 55 42 55.4477 42 56V60.5C42 61.0523 41.5523 61.5 41 61.5 40.4477 61.5 40 61.0523 40 60.5V56C40 55.4477 40.4477 55 41 55zM33 55C33.5523 55 34 55.4477 34 56V60.5C34 61.0523 33.5523 61.5 33 61.5 32.4477 61.5 32 61.0523 32 60.5V56C32 55.4477 32.4477 55 33 55z" clip-rule="evenodd" class="colorb96f00 svgShape"></path><path fill="#d19b00" d="M62 40C62 36.6863 52.598 34 41 34C29.402 34 20 36.6863 20 40V46C20 49.3137 29.402 52 41 52C52.598 52 62 49.3137 62 46V40Z" class="colord18a00 svgShape"></path><path fill="#ea4335" fill-rule="evenodd" d="M61.4692 36.0072C62.7085 36.8444 64 38.1566 64 40V46C64 47.8434 62.7085 49.1556 61.4692 49.9928C60.1602 50.8771 58.3973 51.5946 56.3987 52.1657C52.3742 53.3156 46.9305 54 41 54C35.0695 54 29.6258 53.3156 25.6013 52.1657C23.6027 51.5946 21.8398 50.8771 20.5308 49.9928C19.2915 49.1556 18 47.8434 18 46V40C18 38.1566 19.2915 36.8444 20.5308 36.0072C21.8398 35.1229 23.6027 34.4054 25.6013 33.8343C29.6258 32.6844 35.0695 32 41 32C46.9305 32 52.3742 32.6844 56.3987 33.8343C58.3973 34.4054 60.1602 35.1229 61.4692 36.0072ZM41 34C52.598 34 62 36.6863 62 40V46C62 49.3137 52.598 52 41 52C29.402 52 20 49.3137 20 46V40C20 36.6863 29.402 34 41 34Z" clip-rule="evenodd" class="colorb96f00 svgShape"></path><path fill="#ffc723" d="M62 40C62 43.3137 52.598 46 41 46C29.402 46 20 43.3137 20 40C20 36.6863 29.402 34 41 34C52.598 34 62 36.6863 62 40Z" class="colorffcf23 svgShape"></path><path fill="#ea4335" fill-rule="evenodd" d="M56.3987 46.1657C52.3741 47.3156 46.9305 48 41 48C35.0695 48 29.6258 47.3156 25.6013 46.1657C23.6027 45.5946 21.8398 44.8771 20.5308 43.9928C19.2915 43.1556 18 41.8434 18 40C18 38.1566 19.2915 36.8444 20.5308 36.0072C21.8398 35.1229 23.6027 34.4054 25.6013 33.8343C29.6258 32.6844 35.0695 32 41 32C46.9305 32 52.3741 32.6844 56.3987 33.8343C58.3973 34.4054 60.1602 35.1229 61.4692 36.0072C62.7085 36.8444 64 38.1566 64 40C64 41.8434 62.7085 43.1556 61.4692 43.9928C60.1602 44.8771 58.3973 45.5946 56.3987 46.1657ZM41 46C52.598 46 62 43.3137 62 40C62 36.6863 52.598 34 41 34C29.402 34 20 36.6863 20 40C20 43.3137 29.402 46 41 46Z" clip-rule="evenodd" class="colorb96f00 svgShape"></path><path fill="#ea4335" fill-rule="evenodd" d="M25 44C25.5523 44 26 44.4477 26 45V50.5C26 51.0523 25.5523 51.5 25 51.5 24.4477 51.5 24 51.0523 24 50.5V45C24 44.4477 24.4477 44 25 44zM57 44C57.5523 44 58 44.4477 58 45V50.5C58 51.0523 57.5523 51.5 57 51.5 56.4477 51.5 56 51.0523 56 50.5V45C56 44.4477 56.4477 44 57 44zM33 46C33.5523 46 34 46.4477 34 47V51.5C34 52.0523 33.5523 52.5 33 52.5 32.4477 52.5 32 52.0523 32 51.5V47C32 46.4477 32.4477 46 33 46zM50 46C50.5523 46 51 46.4477 51 47V51.5C51 52.0523 50.5523 52.5 50 52.5 49.4477 52.5 49 52.0523 49 51.5V47C49 46.4477 49.4477 46 50 46zM42 46C42.5523 46 43 46.4477 43 47V51.5C43 52.0523 42.5523 52.5 42 52.5 41.4477 52.5 41 52.0523 41 51.5V47C41 46.4477 41.4477 46 42 46z" clip-rule="evenodd" class="colorb96f00 svgShape"></path><path fill="#d19b00" d="M56 31C56 27.6863 46.598 25 35 25C23.402 25 14 27.6863 14 31V37C14 40.3137 23.402 43 35 43C46.598 43 56 40.3137 56 37V31Z" class="colord18a00 svgShape"></path><path fill="#ea4335" fill-rule="evenodd" d="M55.4692 27.0072C56.7085 27.8444 58 29.1566 58 31V37C58 38.8434 56.7085 40.1556 55.4692 40.9928C54.1602 41.8771 52.3973 42.5946 50.3987 43.1657C46.3742 44.3156 40.9305 45 35 45C29.0695 45 23.6258 44.3156 19.6013 43.1657C17.6027 42.5946 15.8398 41.8771 14.5308 40.9928C13.2915 40.1556 12 38.8434 12 37V31C12 29.1566 13.2915 27.8444 14.5308 27.0072C15.8398 26.1229 17.6027 25.4054 19.6013 24.8343C23.6258 23.6844 29.0695 23 35 23C40.9305 23 46.3742 23.6844 50.3987 24.8343C52.3973 25.4054 54.1602 26.1229 55.4692 27.0072ZM35 25C46.598 25 56 27.6863 56 31V37C56 40.3137 46.598 43 35 43C23.402 43 14 40.3137 14 37V31C14 27.6863 23.402 25 35 25Z" clip-rule="evenodd" class="colorb96f00 svgShape"></path><path fill="#ffd352" d="M56 31C56 34.3137 46.598 37 35 37C23.402 37 14 34.3137 14 31C14 27.6863 23.402 25 35 25C46.598 25 56 27.6863 56 31Z" class="colorffd952 svgShape"></path><path fill="#ea4335" fill-rule="evenodd" d="M50.3987 37.1657C46.3741 38.3156 40.9305 39 35 39C29.0695 39 23.6258 38.3156 19.6013 37.1657C17.6027 36.5946 15.8398 35.8771 14.5308 34.9928C13.2915 34.1556 12 32.8434 12 31C12 29.1566 13.2915 27.8444 14.5308 27.0072C15.8398 26.1229 17.6027 25.4054 19.6013 24.8343C23.6258 23.6844 29.0695 23 35 23C40.9305 23 46.3741 23.6844 50.3987 24.8343C52.3973 25.4054 54.1602 26.1229 55.4692 27.0072C56.7085 27.8444 58 29.1566 58 31C58 32.8434 56.7085 34.1556 55.4692 34.9928C54.1602 35.8771 52.3973 36.5946 50.3987 37.1657ZM35 37C46.598 37 56 34.3137 56 31C56 27.6863 46.598 25 35 25C23.402 25 14 27.6863 14 31C14 34.3137 23.402 37 35 37Z" clip-rule="evenodd" class="colorb96f00 svgShape"></path><path fill="#fee290" d="M47 30.5C47 32.433 41.6274 34 35 34C28.3726 34 23 32.433 23 30.5C23 28.567 28.3726 27 35 27C41.6274 27 47 28.567 47 30.5Z" class="colorfee790 svgShape"></path><path fill="#ea4335" fill-rule="evenodd" d="M19 35C19.5523 35 20 35.4477 20 36V41.5C20 42.0523 19.5523 42.5 19 42.5 18.4477 42.5 18 42.0523 18 41.5V36C18 35.4477 18.4477 35 19 35zM51 35C51.5523 35 52 35.4477 52 36V41.5C52 42.0523 51.5523 42.5 51 42.5 50.4477 42.5 50 42.0523 50 41.5V36C50 35.4477 50.4477 35 51 35zM27 37C27.5523 37 28 37.4477 28 38V42.5C28 43.0523 27.5523 43.5 27 43.5 26.4477 43.5 26 43.0523 26 42.5V38C26 37.4477 26.4477 37 27 37zM44 37C44.5523 37 45 37.4477 45 38V42.5C45 43.0523 44.5523 43.5 44 43.5 43.4477 43.5 43 43.0523 43 42.5V38C43 37.4477 43.4477 37 44 37zM36 37C36.5523 37 37 37.4477 37 38V42.5C37 43.0523 36.5523 43.5 36 43.5 35.4477 43.5 35 43.0523 35 42.5V38C35 37.4477 35.4477 37 36 37z" clip-rule="evenodd" class="colorb96f00 svgShape"></path><path fill="#ffedb9" fill-rule="evenodd" d="M15 30C15.5523 30 16 30.4477 16 31C16 31.1436 16.1274 31.5409 17.0214 32.0972C17.8621 32.6202 19.1452 33.1279 20.8195 33.5685C24.1532 34.4457 28.8136 35 34 35C34.5523 35 35 35.4477 35 36C35 36.5523 34.5523 37 34 37C28.693 37 23.8534 36.435 20.3105 35.5026C18.5464 35.0384 17.047 34.4686 15.9648 33.7953C14.936 33.1552 14 32.2371 14 31C14 30.4477 14.4477 30 15 30Z" clip-rule="evenodd" class="colorfff1b9 svgShape"></path><path fill="#34a853" fill-opacity=".1" d="M73 88C82.9411 88 91 79.9411 91 70C91 60.0589 82.9411 52 73 52C63.0589 52 55 60.0589 55 70C55 79.9411 63.0589 88 73 88Z" class="color021024 svgShape"></path><path fill="#ffc723" d="M88 69C88 77.8366 80.8366 85 72 85C63.1634 85 56 77.8366 56 69C56 60.1634 63.1634 53 72 53C80.8366 53 88 60.1634 88 69Z" class="colorffcf23 svgShape"></path><path fill="#ea4335" fill-rule="evenodd" d="M90 69C90 78.9411 81.9411 87 72 87C62.0589 87 54 78.9411 54 69C54 59.0589 62.0589 51 72 51C81.9411 51 90 59.0589 90 69ZM72 85C80.8366 85 88 77.8366 88 69C88 60.1634 80.8366 53 72 53C63.1634 53 56 60.1634 56 69C56 77.8366 63.1634 85 72 85Z" clip-rule="evenodd" class="colorb96f00 svgShape"></path><path fill="#fbbc05" fill-rule="evenodd" d="M72 56C64.8203 56 59 61.8203 59 69C59 76.1797 64.8203 82 72 82C79.1797 82 85 76.1797 85 69C85 61.8203 79.1797 56 72 56ZM57 69C57 60.7157 63.7157 54 72 54C80.2843 54 87 60.7157 87 69C87 77.2843 80.2843 84 72 84C63.7157 84 57 77.2843 57 69Z" clip-rule="evenodd" class="colorf9b300 svgShape"></path><path fill="#ffe392" fill-rule="evenodd" d="M72 58C65.9249 58 61 62.9249 61 69C61 69.5523 60.5523 70 60 70C59.4477 70 59 69.5523 59 69C59 61.8203 64.8203 56 72 56C72.5523 56 73 56.4477 73 57C73 57.5523 72.5523 58 72 58Z" clip-rule="evenodd" class="colorffe792 svgShape"></path><path fill="#4285f4" fill-rule="evenodd" d="M64.7959 59.3946C65.1303 59.8341 65.0451 60.4615 64.6055 60.7959C64.315 61.0169 64.0402 61.2907 63.7902 61.6129C63.4517 62.0493 62.8236 62.1287 62.3872 61.7902C61.9508 61.4517 61.8714 60.8236 62.2099 60.3872C62.5582 59.9381 62.9551 59.5385 63.3946 59.2042C63.8341 58.8698 64.4615 58.955 64.7959 59.3946Z" clip-rule="evenodd" class="colorfff8df svgShape"></path><path fill="#fbbc05" d="M82 67C82 67.5523 81.5523 68 81 68 80.4477 68 80 67.5523 80 67 80 66.4477 80.4477 66 81 66 81.5523 66 82 66.4477 82 67zM84 71C84 71.5523 83.5523 72 83 72 82.4477 72 82 71.5523 82 71 82 70.4477 82.4477 70 83 70 83.5523 70 84 70.4477 84 71zM82 75C82 75.5523 81.5523 76 81 76 80.4477 76 80 75.5523 80 75 80 74.4477 80.4477 74 81 74 81.5523 74 82 74.4477 82 75zM77 78C77 78.5523 76.5523 79 76 79 75.4477 79 75 78.5523 75 78 75 77.4477 75.4477 77 76 77 76.5523 77 77 77.4477 77 78zM74 80C74 80.5523 73.5523 81 73 81 72.4477 81 72 80.5523 72 80 72 79.4477 72.4477 79 73 79 73.5523 79 74 79.4477 74 80zM81 72C81 72.5523 80.5523 73 80 73 79.4477 73 79 72.5523 79 72 79 71.4477 79.4477 71 80 71 80.5523 71 81 71.4477 81 72zM79 69C79 69.5523 78.5523 70 78 70 77.4477 70 77 69.5523 77 69 77 68.4477 77.4477 68 78 68 78.5523 68 79 68.4477 79 69zM79 75C79 75.5523 78.5523 76 78 76 77.4477 76 77 75.5523 77 75 77 74.4477 77.4477 74 78 74 78.5523 74 79 74.4477 79 75z" class="colorf9b300 svgShape"></path><path fill="#ea4335" fill-rule="evenodd" d="M73.0832 62.5C70.1661 62.5 67.5 65.2333 67.5 69C67.5 72.7667 70.1661 75.5 73.0832 75.5C74.1826 75.5 75.2173 75.1295 76.0993 74.4672C76.7617 73.9698 77.702 74.1035 78.1995 74.7659C78.6969 75.4284 78.5632 76.3687 77.9007 76.8661C76.5389 77.8888 74.8803 78.5 73.0832 78.5C68.1765 78.5 64.5 74.0699 64.5 69C64.5 63.9301 68.1765 59.5 73.0832 59.5C74.8803 59.5 76.5389 60.1112 77.9007 61.1339C78.5632 61.6313 78.6969 62.5716 78.1995 63.2341C77.702 63.8965 76.7617 64.0302 76.0993 63.5328C75.2173 62.8705 74.1826 62.5 73.0832 62.5Z" clip-rule="evenodd" class="colorb96f00 svgShape"></path><path fill="#ea4335" fill-rule="evenodd" d="M62 71C62 70.4477 62.4477 70 63 70H71C71.5523 70 72 70.4477 72 71 72 71.5523 71.5523 72 71 72H63C62.4477 72 62 71.5523 62 71zM62 67C62 66.4477 62.4477 66 63 66H71C71.5523 66 72 66.4477 72 67 72 67.5523 71.5523 68 71 68H63C62.4477 68 62 67.5523 62 67z" clip-rule="evenodd" class="colorb96f00 svgShape"></path></svg>